<svg width="80" height="86" viewBox="0 0 80 86" fill="none" xmlns="http://www.w3.org/2000/svg">
<g clip-path="url(#clip0_34_1032)">
<path d="M77.3096 59.267C74.3668 57.8184 71.5262 56.1681 68.5993 54.6881C67.7243 54.2464 67.4244 53.7576 67.4335 52.7844C67.488 47.2458 67.463 41.705 67.4517 36.1665C67.4448 33.3972 65.4178 30.027 61.4387 30.2737C61.1683 30.2893 60.8933 30.2737 60.5706 30.2737C60.5706 29.1166 60.6252 28.0807 60.5593 27.0514C60.4388 25.1858 60.4661 23.2731 60.0502 21.4658C57.5687 10.6757 50.9285 3.48008 40.0161 0.863282C29.1174 -1.75127 19.873 1.64361 12.7215 10.151C8.7606 14.8621 6.95171 20.4164 6.92445 26.5312C6.9199 27.7533 6.92445 28.9776 6.92445 30.2781C6.41541 30.2781 5.99728 30.2781 5.57914 30.2781C3.66118 30.2781 2.20225 31.119 1.13419 32.6528C0.372917 33.747 0.0343194 34.9781 0.0297745 36.2943C0.0184121 39.1936 0.0115947 58.3162 0.0252295 62.8076C0.00250483 66.5769 -0.0315822 70.3485 0.0752238 74.1156C0.177485 77.6989 2.55221 79.7977 6.16771 79.7977C22.9885 79.7977 39.8116 79.8022 56.6324 79.7842C57.2596 79.7842 57.6528 79.9569 58.0505 80.4525C59.9525 82.8271 62.2091 84.7891 65.0678 86.0022H66.4313C67.4108 85.4551 68.4447 84.9842 69.356 84.3451C72.4579 82.1746 74.6531 79.2304 76.4575 75.988C78.5618 72.2097 79.8434 68.2049 79.9934 63.8592C80.0661 61.7223 79.3071 60.2536 77.3074 59.2692L77.3096 59.267ZM21.4205 6.9669C29.7991 1.87233 38.4981 2.02257 46.7131 7.37724C54.9394 12.7409 57.8073 20.7326 57.0347 30.2311H52.317C52.317 28.5 52.4193 26.8205 52.3011 25.1544C51.6444 15.9183 43.9202 8.4715 34.6895 8.11273C25.0951 7.7405 16.787 14.3868 15.3258 23.6296C15.1599 24.6746 15.1462 25.7464 15.1122 26.807C15.0781 27.9215 15.1053 29.0381 15.1053 30.2131H10.4172C9.6855 20.4141 12.7374 12.2476 21.4228 6.9669H21.4205ZM48.7924 30.249H18.6527C17.2142 20.0688 23.2521 12.7028 31.7943 11.6466C40.2616 10.6017 47.4471 16.0281 48.747 24.3292C49.0447 26.233 48.7901 28.2219 48.7901 30.2467L48.7924 30.249ZM54.4418 76.4185C38.2163 76.4185 21.9909 76.414 5.76549 76.4297C4.77014 76.4297 4.09977 76.0059 3.79071 75.1471C3.57028 74.5327 3.48393 73.8421 3.48165 73.1828C3.45893 69.6108 3.47029 66.0365 3.46348 62.4623C3.47711 57.583 3.46348 39.5659 3.46802 36.9468C3.46802 36.5567 3.46575 36.1598 3.51574 35.7741C3.69299 34.3928 4.52472 33.6506 5.88593 33.6506C24.4702 33.6506 43.0522 33.6506 61.6364 33.6506C62.7795 33.6506 63.468 34.0991 63.8043 35.1664C63.968 35.6889 64.027 36.2652 64.0293 36.8168C64.0452 42.2724 64.0293 47.7279 64.0543 53.1835C64.0566 53.8181 63.893 54.1679 63.293 54.4773C60.2525 56.0447 57.2801 57.7511 54.2054 59.2535C52.1239 60.2693 51.3762 61.8142 51.4898 63.996C51.6285 66.642 52.092 69.2184 53.0601 71.6872C53.6782 73.2658 54.4168 74.7973 55.1303 76.4185H54.4463H54.4418ZM76.5665 63.8704C76.2234 69.4583 74.1259 74.026 70.9126 78.1518C69.6787 79.7372 68.2243 81.096 66.5086 82.1925C65.9427 82.5535 65.5246 82.5244 64.9747 82.1791C61.9659 80.2865 59.8775 77.598 58.1664 74.591C56.2552 71.2298 55.0258 67.669 54.9394 63.7673C54.9235 62.9892 55.1712 62.5766 55.8734 62.2156C58.9663 60.6236 62.0318 58.9844 65.0883 57.3296C65.5723 57.0672 65.9336 57.0672 66.4131 57.3251C69.3469 58.9127 72.2784 60.5047 75.253 62.016C76.2257 62.5116 76.8733 63.0273 76.5665 63.8704Z" fill="#357EFE"/>
<path d="M27.3786 54.9214C31.5054 51.2081 30.9191 45.6359 27.9104 42.5123C24.7312 39.2116 19.4159 38.9089 15.8936 41.8867C14.2119 43.3083 13.1825 45.1089 12.903 47.2773C12.5008 50.3806 13.587 52.966 15.9436 55.0985C15.6777 55.26 15.4891 55.3743 15.3027 55.4909C11.6213 57.8274 9.39429 61.0541 9.05342 65.4267C8.84436 68.1062 10.7282 70.2185 13.4279 70.2365C18.8523 70.2701 24.2744 70.2679 29.6988 70.2365C32.2508 70.223 34.0733 68.3462 34.0665 65.8437C34.0574 63.1395 33.1643 60.7021 31.4032 58.6728C30.2215 57.3117 28.758 56.1883 27.3832 54.9214H27.3786ZM21.5793 43.1985C24.5267 43.2097 26.9059 45.6022 26.8764 48.5262C26.8469 51.3875 24.3994 53.7352 21.4997 53.6858C18.5523 53.6365 16.2412 51.3067 16.2594 48.4052C16.2776 45.5193 18.6614 43.1895 21.5793 43.1985ZM29.3511 66.8707C26.7401 66.8775 24.129 66.873 21.5156 66.873C18.9614 66.873 16.4049 66.8775 13.8506 66.873C12.7098 66.873 12.4508 66.5882 12.5121 65.4625C12.7098 61.8726 15.7458 58.3499 19.5022 57.352C22.9905 56.426 26.9082 58.0449 29.1352 61.3344C30.001 62.6148 30.5464 64.0073 30.626 65.5522C30.6782 66.5523 30.3624 66.8707 29.3511 66.873V66.8707Z" fill="#357EFE"/>
<path d="M38.1957 48.2302C40.6386 48.237 43.0792 48.2302 45.5221 48.2302C47.9355 48.2302 50.3488 48.2347 52.7645 48.2302C54.0461 48.228 54.8483 47.5531 54.8279 46.5149C54.8074 45.5036 54.0279 44.8645 52.7849 44.8645C47.9286 44.86 43.0724 44.86 38.2161 44.8645C36.9503 44.8645 36.2209 45.4879 36.2163 46.5373C36.2118 47.5912 36.9435 48.2258 38.1957 48.2302Z" fill="#357EFE"/>
<path d="M48.1171 53.9302C44.8015 53.9235 41.4837 53.9235 38.1682 53.9302C36.9274 53.9325 36.198 54.585 36.2162 55.6411C36.2321 56.6569 36.9547 57.287 38.1478 57.2937C39.8203 57.3049 41.4928 57.296 43.1654 57.296C44.8084 57.296 46.4536 57.3027 48.0966 57.296C49.3578 57.2892 50.0873 56.6703 50.0918 55.6209C50.0987 54.5693 49.3669 53.9325 48.1171 53.9302Z" fill="#357EFE"/>
<path d="M69.4239 65.476C69.174 65.7047 68.9512 65.9603 68.7035 66.1913C67.2764 67.5098 65.8448 68.8238 64.3427 70.2051C64.2086 70.0817 63.9609 69.8508 63.7132 69.6221C63.4655 69.3933 63.2224 69.1557 62.9656 68.9359C62.0952 68.1847 61.0771 68.187 60.3954 68.9359C59.7364 69.6602 59.8068 70.6266 60.6158 71.398C61.493 72.2344 62.3861 73.0573 63.2928 73.8623C64.2222 74.6897 65.0835 74.6538 65.988 73.7704C66.6538 73.1201 67.3037 72.4564 67.9582 71.7926C69.2648 70.4697 70.5852 69.1579 71.8691 67.8125C72.5917 67.0568 72.5599 66.0769 71.8691 65.411C71.1874 64.7562 70.1875 64.7786 69.4239 65.476Z" fill="#357EFE"/>
</g>
<defs>
<clipPath id="clip0_34_1032">
<rect width="80" height="86" fill="white"/>
</clipPath>
</defs>
</svg>
