<svg width="80" height="80" viewBox="0 0 80 80" fill="none" xmlns="http://www.w3.org/2000/svg">
<g clip-path="url(#clip0_34_1020)">
<path d="M0 23.9149C0.498619 21.5416 1.88106 19.6085 3.12663 17.605C5.85828 13.2086 8.62122 8.82982 11.3216 4.41581C13.1577 1.4164 15.7759 -0.00602073 19.2878 -0.000151033C33.0809 0.0272409 46.8741 0.0272409 60.6673 -0.000151033C64.1791 -0.00797729 66.7973 1.4164 68.6374 4.4119C71.7796 9.53223 74.9551 14.633 78.16 19.7161C79.3919 21.6688 80.0743 23.7212 79.9707 26.0515C79.8964 27.74 79.9316 29.4364 79.9609 31.1268C80.0117 33.9599 79.0164 36.3059 76.8264 38.1274C76.7697 38.1744 76.7287 38.2448 76.7228 38.2507C77.4443 39.1546 78.3164 39.9529 78.8092 40.9429C79.3645 42.0562 79.8084 43.3241 79.8885 44.5528C80.0508 47.067 80.0137 49.6027 79.9022 52.1227C79.8573 53.1577 79.4877 54.2065 79.1142 55.1906C78.7642 56.1121 77.8354 56.435 76.9946 56.1063C76.1557 55.7795 75.7119 54.9245 76.0775 53.9951C76.6192 52.6197 76.6583 51.211 76.6368 49.7768C76.6094 48.0335 76.6896 46.2824 76.5429 44.5508C76.318 41.8977 74.3236 40.1192 71.6604 40.0096C71.4785 40.0018 71.2967 40.0057 71.1148 40.0057C50.3468 40.0057 29.5789 40.0057 8.81285 40.0057C6.09293 40.0057 4.17862 41.3577 3.51771 43.7349C3.47665 43.8836 3.42972 44.0382 3.42776 44.1908C3.40039 46.7656 3.24005 49.3483 3.39648 51.9134C3.57832 54.9284 5.67448 56.6698 8.78547 56.6776C13.4177 56.6893 18.05 56.6815 22.6823 56.6815C26.9508 56.6815 31.2175 56.6815 35.486 56.6835C35.8243 56.6835 36.1665 56.6835 36.497 56.7363C37.2302 56.8537 37.7484 57.4387 37.8129 58.1724C37.8833 58.9609 37.4785 59.6438 36.7355 59.8668C36.3699 59.9764 35.969 59.9998 35.5818 59.9998C26.6302 60.0077 17.6765 60.0018 8.72485 60.0077C6.07729 60.0077 4.16298 61.387 3.51184 63.7408C3.47078 63.8895 3.42581 64.0441 3.42385 64.1986C3.39452 66.748 3.23614 69.3053 3.38083 71.8449C3.55486 74.905 5.6471 76.6737 8.78938 76.6796C15.6332 76.6893 22.4789 76.6835 29.3227 76.6835C29.5828 76.6835 29.8428 76.6756 30.1029 76.6933C31.0102 76.748 31.5499 77.1687 31.7532 77.965C31.9468 78.7242 31.634 79.3757 30.8557 79.8414C30.7697 79.8922 30.6915 79.9529 30.6093 80.0077H7.18402C7.01977 79.9529 6.85748 79.8844 6.68932 79.8453C3.57441 79.1057 1.48999 77.2157 0.410627 74.2123C0.248332 73.7584 0.136876 73.2849 0.00195537 72.8212V63.9169C0.50644 61.7177 1.46262 59.7866 3.43363 58.3289C2.86853 57.8026 2.32689 57.3604 1.86151 56.8498C0.821255 55.7013 0.416494 54.2534 0 52.8173V43.913C0.504485 41.7138 1.46066 39.7827 3.43167 38.325C2.86657 37.7987 2.32493 37.3565 1.85956 36.8459C0.821255 35.7052 0.416494 34.2554 0 32.8193V23.9149ZM39.9775 20.0096C29.6473 20.0096 19.319 20.0096 8.98883 20.0135C8.5215 20.0135 8.0483 20.0214 7.58879 20.0918C5.30296 20.444 3.55682 22.1736 3.4219 24.4843C3.28111 26.9222 3.32217 29.3737 3.36519 31.8175C3.37692 32.4964 3.5705 33.2223 3.86772 33.8347C4.89624 35.9537 6.72256 36.6933 8.98687 36.6913C29.6453 36.6796 50.3058 36.6854 70.9642 36.6854C71.1461 36.6854 71.3279 36.6913 71.5098 36.6815C74.1593 36.5543 76.3454 34.856 76.494 32.514C76.6602 29.8981 76.5644 27.2646 76.5683 24.6389C76.5683 24.3317 76.5058 24.0167 76.4236 23.7193C75.7784 21.3929 73.8738 20.0135 71.2771 20.0116C60.8433 20.0057 50.4094 20.0096 39.9756 20.0096H39.9775ZM7.63376 16.6659H72.2998C72.1296 16.3782 72.0045 16.1572 71.8696 15.94C69.8516 12.6921 67.7985 9.46766 65.8275 6.19237C64.6367 4.21233 62.9648 3.31036 60.6692 3.32209C54.0601 3.35536 47.4509 3.33383 40.8418 3.33383C33.6089 3.33383 26.374 3.34362 19.1411 3.32796C16.9746 3.32209 15.3555 4.19081 14.2194 6.05346C12.4205 9.00787 10.5746 11.9329 8.74832 14.8697C8.39244 15.4411 8.04048 16.0124 7.63376 16.6678V16.6659Z" fill="#357EFE"/>
<path d="M40.6033 80C38.996 79.6283 37.5139 79.0452 36.2155 77.9534C32.3087 74.6684 32.381 68.2547 36.4716 65.1986C37.3672 64.5294 38.4661 64.1166 39.5044 63.6607C39.8779 63.4964 40.0852 63.3692 40.1497 62.9309C41.3718 54.6723 48.7651 49.0432 56.9874 50.1702C61.0037 50.72 64.275 52.6648 66.7584 55.8853C67.1514 56.396 67.4897 56.7247 68.2523 56.7169C74.3295 56.6445 79.4115 61.3226 79.9219 67.3802C80.4322 73.4338 76.1031 78.9161 70.0747 79.8513C69.928 79.8748 69.7911 79.9491 69.6484 80H40.6033ZM55.163 76.6777C59.4042 76.6777 63.6454 76.6777 67.8866 76.6777C67.9394 76.6777 67.9902 76.6777 68.043 76.6777C73.4203 76.623 77.1981 72.3459 76.5235 67.0749C76.0014 62.9935 71.8286 59.5382 67.8651 60.0724C66.2969 60.2837 65.3642 59.8611 64.5253 58.5189C62.1456 54.7094 57.3843 52.7138 52.973 53.5199C47.6212 54.5001 43.773 58.785 43.3604 64.2281C43.2079 66.2434 42.9498 66.5114 40.9514 66.7306C38.1474 67.0397 36.0864 70.043 36.7923 72.794C37.42 75.2377 39.3324 76.666 42.0503 76.6738C46.4206 76.6875 50.7928 76.6777 55.163 76.6777Z" fill="#357EFE"/>
<path d="M55.0164 43.3281C59.2283 43.3281 63.4402 43.3281 67.652 43.3281C69.1342 43.3281 69.9242 43.8975 69.9496 44.9736C69.977 46.0693 69.1498 46.6836 67.6383 46.6836C59.1892 46.6836 50.7381 46.6836 42.2889 46.6836C40.8068 46.6836 40.0168 46.1143 39.9914 45.0382C39.964 43.9425 40.7911 43.3281 42.3026 43.3281C46.5399 43.3281 50.7791 43.3281 55.0164 43.3281Z" fill="#357EFE"/>
<path d="M11.6854 53.3144C8.91664 53.3301 6.67775 51.0937 6.68557 48.3232C6.69339 45.5958 8.90687 43.3672 11.6366 43.3398C14.3506 43.3124 16.6716 45.631 16.6579 48.3526C16.6423 51.0761 14.4151 53.2988 11.6874 53.3144H11.6854ZM13.2986 48.3447C13.3025 47.4369 12.5947 46.7149 11.6874 46.7032C10.7664 46.6895 9.98427 47.4662 10.0058 48.3702C10.0273 49.2369 10.8134 50.0019 11.6718 49.9922C12.5536 49.9824 13.2928 49.233 13.2967 48.3447H13.2986Z" fill="#357EFE"/>
<path d="M11.6481 73.3144C8.87927 73.3085 6.65797 71.0546 6.6873 68.2841C6.71663 65.5547 8.96726 63.3222 11.6735 63.3398C14.3895 63.3574 16.6225 65.586 16.6538 68.3095C16.6871 71.035 14.4012 73.3203 11.6481 73.3124V73.3144ZM13.2964 68.3271C13.2925 67.4212 12.5749 66.7051 11.6715 66.7012C10.7818 66.6953 10.029 67.4232 10.0075 68.3095C9.98796 69.2017 10.7975 70.0117 11.6891 69.9921C12.5749 69.9726 13.3023 69.2193 13.2964 68.3291V68.3271Z" fill="#357EFE"/>
<path d="M54.9616 23.3301C59.1734 23.3301 63.3853 23.3301 67.5972 23.3301C69.136 23.3301 69.9417 23.9053 69.9495 24.999C69.9573 26.0927 69.1399 26.6856 67.6148 26.6856C59.191 26.6856 50.7673 26.6856 42.3436 26.6856C40.8047 26.6856 39.9991 26.1104 39.9913 25.0166C39.9834 23.9229 40.8008 23.3301 42.326 23.3301C46.5378 23.3301 50.7497 23.3301 54.9616 23.3301Z" fill="#357EFE"/>
<path d="M54.9284 33.3301C50.7654 33.3301 46.6005 33.3301 42.4375 33.3301C42.2029 33.3301 41.9682 33.336 41.7355 33.3223C40.7051 33.2636 40.0031 32.6022 39.9914 31.6905C39.9796 30.7768 40.6796 30.0881 41.7023 30.0137C41.8842 30 42.066 30.0078 42.2479 30.0078C50.7302 30.0078 59.2146 30.0078 67.697 30.0137C68.0822 30.0137 68.485 30.0391 68.8487 30.1507C69.5389 30.3581 69.9965 31.0879 69.9437 31.7746C69.887 32.524 69.3278 33.1618 68.5847 33.2773C68.2523 33.3301 67.9101 33.3262 67.5738 33.3281C63.358 33.332 59.1422 33.3301 54.9265 33.3301H54.9284Z" fill="#357EFE"/>
<path d="M11.6815 33.3183C8.91274 33.332 6.6758 31.0976 6.68558 28.3252C6.69536 25.5997 8.92252 23.3574 11.6385 23.3437C14.3663 23.3301 16.6638 25.6271 16.656 28.3604C16.6482 31.0722 14.4073 33.3066 11.6815 33.3183ZM11.6659 26.7051C10.7762 26.7012 10.0234 27.433 10.0058 28.3173C9.9882 29.2076 10.8036 30.0176 11.6913 29.9961C12.5771 29.9745 13.3006 29.2193 13.2947 28.3291C13.2889 27.4232 12.5712 26.709 11.6659 26.7051Z" fill="#357EFE"/>
</g>
<defs>
<clipPath id="clip0_34_1020">
<rect width="80" height="80" fill="white"/>
</clipPath>
</defs>
</svg>
