<svg width="80" height="86" viewBox="0 0 80 86" fill="none" xmlns="http://www.w3.org/2000/svg">
<g clip-path="url(#clip0_34_1012)">
<path d="M0.0187931 25.4476C0.0187931 24.327 0.00716788 23.2087 0.0187931 22.0881C0.0583188 18.9908 2.06715 16.6254 5.16178 16.202C17.2892 14.536 27.7193 9.36319 36.78 1.32327C38.8005 -0.46926 41.279 -0.441647 43.3529 1.41071C49.9932 7.33825 57.524 11.7517 66.1058 14.2806C68.8981 15.1043 71.7858 15.652 74.6642 16.1398C77.7542 16.6645 79.9793 18.8321 79.9955 21.8787C80.0606 33.6924 78.3889 45.2207 73.9063 56.2405C70.8884 63.6568 66.6173 70.2563 60.5722 75.6454C54.8549 80.7422 48.1913 84.0719 40.7582 85.9219C40.2281 86.0531 39.598 86.0048 39.0609 85.8667C24.5154 82.1183 14.3131 73.2154 7.8007 59.9682C4.5689 53.3918 2.50891 46.4403 1.41149 39.231C0.71398 34.6703 0.537277 30.036 0.0187931 25.4476C0.0838942 25.4384 -0.0463081 25.4568 0.0187931 25.4476ZM75.8361 25.5397C75.8361 24.4191 75.85 23.3007 75.8314 22.1801C75.8128 21.0089 75.3036 20.4704 74.1364 20.2794C72.6507 20.0355 71.1581 19.8192 69.6886 19.4994C58.7726 17.1293 49.2353 12.1015 40.9116 4.77027C40.2304 4.17199 39.8444 4.13517 39.1423 4.75186C29.6747 13.0702 18.7633 18.4041 6.18248 20.2495C4.54565 20.4888 4.19689 20.9168 4.19689 22.5805C4.19224 27.6981 4.5689 32.788 5.38034 37.8435C6.54286 45.0757 8.50054 52.0733 11.8254 58.6451C17.6775 70.2149 26.6196 78.1811 39.3724 81.6627C39.7212 81.757 40.1327 81.826 40.4675 81.734C47.152 79.9323 53.1227 76.8189 58.2076 72.127C64.7805 66.0591 68.933 58.5208 71.6928 50.1588C74.3317 42.1626 75.5338 33.9248 75.8361 25.5374V25.5397Z" fill="#357EFE"/>
<path d="M39.5886 53.341C37.9494 53.2467 36.3986 52.9452 34.9641 52.179C33.9992 51.6635 33.483 49.5166 34.1643 48.6859C34.2945 48.5272 34.8594 48.5433 35.1105 48.6813C36.3916 49.3832 37.703 50.0022 39.1956 49.9906C39.9071 49.9837 40.6651 49.9193 41.3161 49.6662C42.9715 49.0219 43.2738 47.0269 41.9136 45.8948C41.4347 45.4944 40.8511 45.2067 40.2861 44.9191C39.3863 44.4612 38.44 44.0884 37.5518 43.6075C34.9385 42.1969 33.862 40.0293 34.3921 37.3417C34.8827 34.8634 36.8194 33.2182 39.6932 32.9006C41.3254 32.7212 42.9227 32.8868 44.4758 33.4805C45.4128 33.8395 45.8197 34.4055 45.8011 35.4249C45.7662 37.4636 45.7709 37.4291 43.9224 36.6974C42.8762 36.2832 41.7044 36.0899 40.5721 36.0094C39.5397 35.9357 38.7376 36.6077 38.4912 37.4061C38.1982 38.3565 38.5005 39.2424 39.463 39.8614C40.1629 40.3101 40.9417 40.6391 41.6904 41.0119C42.3879 41.3594 43.1064 41.6677 43.7946 42.0336C46.0685 43.2416 47.1915 45.1032 46.9287 47.6781C46.6683 50.2208 45.0268 52.1398 42.4832 52.8371C41.5439 53.0948 40.5535 53.1799 39.5886 53.341Z" fill="#357EFE"/>
<path d="M23.2156 53.2973C21.6462 53.2444 20.1535 52.9452 18.7608 52.2365C17.7122 51.7026 17.1751 49.6639 17.8099 48.6905C18.1447 48.1774 18.519 48.495 18.8561 48.6905C20.0954 49.4085 21.3904 50.0045 22.8529 49.9814C23.6178 49.9699 24.4386 49.8871 25.1291 49.5949C26.6381 48.9552 26.931 47.0246 25.6801 45.9799C25.0059 45.4184 24.1642 45.0457 23.3783 44.6269C22.4623 44.139 21.4765 43.764 20.5999 43.2186C18.4911 41.9024 17.6773 39.9626 18.054 37.5396C18.4097 35.2523 19.8094 33.8625 21.9926 33.2021C23.8178 32.6498 25.6569 32.712 27.4751 33.2412C29.2956 33.7727 29.5885 34.2122 29.4723 36.0784C29.3886 37.4153 29.2514 37.4913 28.04 36.8677C26.8659 36.2648 25.6476 35.8552 24.2944 35.9726C23.1947 36.0669 22.4367 36.5892 22.1716 37.4613C21.8903 38.3887 22.2135 39.2539 23.19 39.889C23.8155 40.2963 24.5106 40.6 25.1826 40.9291C25.8313 41.2466 26.5078 41.5112 27.1449 41.8472C29.8792 43.2876 30.9696 45.2459 30.5813 47.9841C30.2186 50.5452 28.2819 52.4643 25.4476 53.0212C24.7129 53.1661 23.9573 53.2075 23.2109 53.2973H23.2156Z" fill="#357EFE"/>
<path d="M55.5151 49.5948C57.5053 49.5948 59.384 49.6248 61.2626 49.581C62.0043 49.5649 62.3484 49.8319 62.367 50.5475C62.367 50.6326 62.3856 50.7178 62.3926 50.8052C62.5576 52.6783 62.3623 52.8969 60.5116 52.8969C58.0192 52.8969 55.5267 52.9015 53.0343 52.8969C51.7741 52.8946 51.4718 52.6115 51.4695 51.3943C51.4625 45.6577 51.4742 39.9189 51.4556 34.1823C51.4556 33.5426 51.6602 33.2044 52.3112 33.1606C52.5135 33.1468 52.7111 33.0939 52.9134 33.0824C55.357 32.9167 55.5128 33.0594 55.5128 35.4571V48.5387C55.5128 48.8516 55.5128 49.1622 55.5128 49.5994L55.5151 49.5948Z" fill="#357EFE"/>
</g>
<defs>
<clipPath id="clip0_34_1012">
<rect width="80" height="86" fill="white"/>
</clipPath>
</defs>
</svg>
