<svg width="32" height="32" viewBox="0 0 32 32" fill="none" xmlns="http://www.w3.org/2000/svg">
<g clip-path="url(#clip0_34_1002)">
<path d="M0 16.7534V15.0663C0.0195666 14.9551 0.0414812 14.8456 0.0579171 14.7345C0.160446 14.0356 0.219929 13.3259 0.370983 12.6388C1.21391 8.77299 3.21362 5.61463 6.37402 3.2482C10.2529 0.345723 14.6155 -0.613682 19.3615 0.377808C23.1888 1.17366 26.3014 3.18012 28.6807 6.27353C31.2502 9.61423 32.3193 13.4182 31.9178 17.6041C31.593 20.9839 30.2844 23.9717 28.0358 26.5251C25.5548 29.3423 22.4609 31.0944 18.7589 31.7518C18.157 31.859 17.5458 31.9192 16.9392 32.0006H15.1892C14.7352 31.9498 14.2797 31.9098 13.8273 31.8441C11.5731 31.5424 9.41186 30.7521 7.49479 29.5285C7.40837 29.4654 7.30753 29.4249 7.20146 29.4107C7.09538 29.3965 6.98744 29.409 6.88744 29.4472C5.05992 30.0427 3.22771 30.621 1.39706 31.2095C1.29609 31.2415 1.19513 31.2713 1.05268 31.3143C1.69212 29.4119 2.30495 27.5698 2.93108 25.7324C3.01482 25.4851 3.00934 25.3012 2.84733 25.0758C1.52043 23.1906 0.633294 21.0318 0.251235 18.7583C0.136966 18.0955 0.0821797 17.4217 0 16.7534ZM21.2258 25.0297L21.2438 24.9561C21.4312 24.9541 21.6183 24.9418 21.8042 24.9193C22.0618 24.8833 22.3158 24.8252 22.5634 24.7456C24.8151 23.9513 25.5829 22.8722 25.644 20.7734C25.6534 20.4549 25.5344 20.2389 25.244 20.1012C24.0528 19.533 22.8679 18.9493 21.672 18.3913C21.0458 18.101 20.6882 18.2207 20.2741 18.7826C19.9712 19.1934 19.673 19.6066 19.3584 20.0081C18.8661 20.6341 18.5233 20.7202 17.7892 20.4205C15.1109 19.3288 13.1362 17.4468 11.6554 14.9982C11.4559 14.6672 11.4809 14.3674 11.7282 14.0818C12.0147 13.7516 12.298 13.4174 12.5978 13.0997C13.0932 12.5762 13.2145 12.0417 12.8842 11.3476C12.3363 10.2043 11.8879 9.01637 11.3752 7.85741C11.297 7.68525 11.1232 7.47788 10.9565 7.43797C10.1167 7.23529 9.24013 7.1899 8.53965 7.76507C6.98449 9.04141 6.50472 10.7474 6.79744 12.6951C6.95397 13.7359 7.37113 14.6953 7.92526 15.5827C9.13488 17.5431 10.608 19.3281 12.3035 20.8876C14.2672 22.6812 16.5729 23.8316 19.1033 24.5656C19.8014 24.7605 20.5175 24.8755 21.2258 25.0297Z" fill="white"/>
</g>
<defs>
<clipPath id="clip0_34_1002">
<rect width="32" height="32" fill="white"/>
</clipPath>
</defs>
</svg>
