<svg width="32" height="23" viewBox="0 0 32 23" fill="none" xmlns="http://www.w3.org/2000/svg">
<g clip-path="url(#clip0_34_1499)">
<path d="M0 2.4937L0.257957 1.68066L9.92508 11.4712L0.250443 21.2659C0.185328 21.0675 0.0934989 20.7866 0 20.5057V2.4937Z" fill="white"/>
<path d="M1.68889 0.183891C2.10629 0.123445 2.5237 0.0136216 2.93609 0.0136216C5.30028 -0.00340539 7.66447 0.00595943 10.032 0.00595943C16.351 0.00198648 22.6713 0 28.9931 0C29.4531 0 29.8988 0.0485268 30.368 0.290309C29.918 0.742375 29.4931 1.16379 29.0757 1.59117C24.9968 5.77469 20.9157 9.95821 16.8324 14.1417C16.3315 14.6593 15.677 14.6619 15.1761 14.1485C10.7355 9.59724 6.29426 5.0448 1.85251 0.491227C1.79491 0.431633 1.73981 0.369485 1.68555 0.309039L1.68889 0.183891Z" fill="white"/>
<path d="M30.3755 22.7676C30.0024 22.8527 29.6835 22.9259 29.3612 22.9872C29.2371 23.0014 29.1119 23.0046 28.9872 22.9966C20.3236 22.9966 11.6604 22.994 2.99789 22.9889C2.56128 22.9889 2.12551 22.8799 1.61377 22.8118L11.336 12.9745L11.2759 12.8843C11.3502 12.9549 11.427 13.023 11.4988 13.0963C12.2409 13.8574 13.0148 14.5895 13.7185 15.3864C14.9632 16.7962 17.0519 16.7783 18.2966 15.3753C19.0647 14.5112 19.9145 13.722 20.6784 12.949L30.3755 22.7676Z" fill="white"/>
<path d="M31.7828 1.70264C31.8487 2.04318 31.9882 2.43224 31.989 2.8196C32.0035 8.60877 32.0035 14.3979 31.989 20.1871C31.989 20.5736 31.8479 20.9601 31.7719 21.35L22.0723 11.5246L31.7828 1.70264Z" fill="white"/>
</g>
<defs>
<clipPath id="clip0_34_1499">
<rect width="32" height="23" fill="white"/>
</clipPath>
</defs>
</svg>
